<?xml version="1.0" encoding="UTF-8" standalone="no"?>
<!-- Created with Inkscape (http://www.inkscape.org/) -->

<svg
   xmlns:dc="http://purl.org/dc/elements/1.1/"
   xmlns:cc="http://creativecommons.org/ns#"
   xmlns:rdf="http://www.w3.org/1999/02/22-rdf-syntax-ns#"
   xmlns:svg="http://www.w3.org/2000/svg"
   xmlns="http://www.w3.org/2000/svg"
   xmlns:sodipodi="http://sodipodi.sourceforge.net/DTD/sodipodi-0.dtd"
   xmlns:inkscape="http://www.inkscape.org/namespaces/inkscape"
   width="210mm"
   height="297mm"
   viewBox="0 0 210 297"
   version="1.1"
   id="svg8"
   inkscape:version="0.92.4 (5da689c313, 2019-01-14)"
   sodipodi:docname="logo.svg">
  <defs
     id="defs2" />
  <sodipodi:namedview
     id="base"
     pagecolor="#ffffff"
     bordercolor="#666666"
     borderopacity="1.0"
     inkscape:pageopacity="0.0"
     inkscape:pageshadow="2"
     inkscape:zoom="0.98994949"
     inkscape:cx="173.16014"
     inkscape:cy="508.7695"
     inkscape:document-units="mm"
     inkscape:current-layer="layer1"
     showgrid="false"
     inkscape:window-width="1920"
     inkscape:window-height="1043"
     inkscape:window-x="1366"
     inkscape:window-y="18"
     inkscape:window-maximized="0" />
  <metadata
     id="metadata5">
    <rdf:RDF>
      <cc:Work
         rdf:about="">
        <dc:format>image/svg+xml</dc:format>
        <dc:type
           rdf:resource="http://purl.org/dc/dcmitype/StillImage" />
        <dc:title />
      </cc:Work>
    </rdf:RDF>
  </metadata>
  <g
     inkscape:label="Layer 1"
     inkscape:groupmode="layer"
     id="layer1">
    <g
       style="fill:#000000"
       transform="matrix(0.93414863,0,0,0.93414863,-188.14793,-157.88659)"
       id="g906">
      <path
         inkscape:connector-curvature="0"
         id="path898"
         style="font-style:normal;font-variant:normal;font-weight:bold;font-stretch:normal;font-size:41.6040535px;line-height:78.00759888px;font-family:'Nexa Rust Sans';-inkscape-font-specification:'Nexa Rust Sans Bold';font-variant-ligatures:normal;font-variant-caps:normal;font-variant-numeric:normal;font-feature-settings:normal;text-align:start;letter-spacing:0px;word-spacing:0px;writing-mode:lr-tb;text-anchor:start;fill:#000000;fill-opacity:1;stroke:none;stroke-width:3.12030387px;stroke-linecap:butt;stroke-linejoin:miter;stroke-opacity:1"
         d="m 112.75659,190.19172 -1.12331,-2.62106 -0.29123,-0.58246 -0.9985,-1.95539 -1.28972,-2.57945 -0.24963,-0.58245 -0.83208,-2.08021 -0.24962,-0.58245 -0.91529,-2.0386 -0.24962,-0.58246 -0.9153,-1.99699 -0.24962,-0.58246 -0.74888,-2.12181 -0.24962,-0.58245 -0.91529,-2.0386 -0.24962,-0.58246 -1.0401,-1.95539 -0.24963,-0.62406 -0.58246,-1.62256 -0.20802,-0.54085 -0.45764,-0.33283 -0.70727,-0.12482 -1.913786,-0.0416 h -3.245117 l -1.913786,0.0832 -0.624061,0.12481 -0.41604,0.24963 -0.208021,0.45764 -0.748873,1.70577 -0.249624,0.62406 -0.790477,1.91378 -0.291228,0.66567 -0.915289,1.87218 -0.291229,0.66567 -1.164913,2.49624 -1.497746,3.41153 -0.249625,0.58246 -1.123309,2.32982 -0.249624,0.62407 -0.956894,2.24661 -0.249624,0.62407 -1.081705,2.32982 -0.249625,0.58246 -1.040101,2.32983 -0.249624,0.62406 -0.582457,1.28972 -0.249624,0.66567 -0.08321,0.33283 -0.0416,0.54085 0.332832,0.45765 0.499249,0.24962 0.540852,-0.0416 2.579452,-0.16642 h 0.665664 l 2.413036,0.12481 0.665665,0.0416 0.624061,-0.24963 0.457645,-0.54085 0.249624,-0.66566 0.956892,-2.82908 0.249625,-0.49925 0.332832,-0.20802 0.540853,-0.0832 h 1.913786 l 0.624061,-0.0416 h 0.624061 l 2.496243,0.0416 3.120304,0.0832 h 0.665665 l 2.49624,0.16642 0.49925,0.0416 0.37444,0.0832 0.29123,0.41604 1.28972,3.49474 0.20802,0.45764 0.24963,0.33284 0.54085,0.16641 2.57945,-0.16641 h 1.87218 l 0.62407,0.0416 0.95689,0.0832 h 0.58245 l 0.54086,-0.0832 0.45764,-0.20802 0.29123,-0.45764 -0.12481,-0.58246 z m -13.18849,-9.2361 -0.332833,0.33283 -0.540853,0.16642 -1.95539,-0.12482 h -2.621055 l -0.582457,-0.0832 -0.457645,-0.20802 -0.124812,-0.49925 0.124812,-0.62406 1.081706,-2.78748 0.249624,-0.62406 1.123309,-2.82907 0.416041,-0.41604 0.457645,-0.12481 0.540852,0.12481 0.416041,0.29123 0.20802,0.54085 0.832082,2.45464 0.20802,0.62406 0.91529,2.82907 0.166416,0.54086 z" />
      <path
         inkscape:connector-curvature="0"
         id="path900"
         style="font-style:normal;font-variant:normal;font-weight:bold;font-stretch:normal;font-size:41.6040535px;line-height:78.00759888px;font-family:'Nexa Rust Sans';-inkscape-font-specification:'Nexa Rust Sans Bold';font-variant-ligatures:normal;font-variant-caps:normal;font-variant-numeric:normal;font-feature-settings:normal;text-align:start;letter-spacing:0px;word-spacing:0px;writing-mode:lr-tb;text-anchor:start;fill:#000000;fill-opacity:1;stroke:none;stroke-width:2.14847898px;stroke-linecap:butt;stroke-linejoin:miter;stroke-opacity:1"
         d="m 107.98304,166.45741 v -0.45835 l 0.11458,-1.51825 v -0.45835 l -0.0859,-1.51825 v -0.45834 l 0.11459,-1.51826 v -0.45833 l -0.11459,-1.54692 v -0.45834 l -0.0286,-1.51826 v -0.45834 l 0.0286,-1.51826 v -0.45834 l -0.0573,-1.51826 0.0286,-0.45834 0.11458,-1.28909 0.0286,-0.34376 -0.0573,-0.22916 -0.17189,-0.14323 -0.20052,-0.0573 -0.34376,-0.0573 -0.48698,-0.0286 -0.8594,0.0573 h -0.45834 l -1.34638,-0.0286 -1.51826,-0.0859 -0.3724,-0.0286 -0.28647,0.14323 -0.22917,0.22917 -0.22917,0.31511 -0.74481,0.91668 -0.28646,0.37241 -1.002623,1.1172 -0.286464,0.37241 -0.916685,1.11721 -0.286464,0.40105 -0.859391,1.14585 -0.257818,0.28646 -0.257817,0.14324 h -0.286464 l -0.257817,-0.14324 -0.286464,-0.3151 -0.888038,-1.11721 -0.286464,-0.40105 -0.945331,-1.11721 -0.286463,-0.37241 -0.830746,-1.17449 -0.286464,-0.3724 -1.002623,-1.11722 -0.286464,-0.31511 -0.31511,-0.14323 h -0.372404 l -1.088563,-0.0286 -0.429695,0.0286 -0.486989,0.0573 -0.888037,0.0859 H 86.98515 l -0.630221,-0.14323 -0.486988,-0.0573 -0.372404,0.0286 -0.229171,0.0573 -0.171878,0.14323 -0.114586,0.20053 -0.05729,0.3724 v 0.45834 l 0.114585,1.05992 v 0.45834 l -0.114585,1.51825 -0.02864,0.45835 0.114585,1.51825 -0.02864,0.45835 -0.08594,1.51825 v 0.45835 l 0.08594,1.54691 0.02864,0.45834 -0.02864,1.51826 v 0.45834 l 0.05729,1.51825 v 4.41155 l -0.05729,0.88803 v 0.65888 l 0.05729,0.28646 0.05729,0.20053 0.17188,0.17187 0.343755,0.0573 h 0.658853 l 1.375027,-0.11459 0.458343,-0.0286 1.117208,0.0859 0.458343,-0.0286 0.744806,-0.0859 0.200525,-0.0573 0.114585,-0.17189 0.05729,-0.3724 0.02864,-0.48699 0.02864,-0.45834 -0.02864,-0.85939 v -0.4297 l 0.02864,-1.77607 v -0.45834 l -0.05729,-1.80473 v -0.45834 l -0.114586,-1.80473 v -0.45834 l 0.08593,-1.80471 0.05729,-0.31511 0.171878,-0.0573 0.372403,0.37239 1.489612,1.6615 0.286464,0.34375 1.059916,1.40368 1.43232,1.71878 0.31511,0.22918 0.343757,0.0859 0.31511,0.0573 h 0.229171 l 0.200525,-0.0859 0.257817,-0.22917 1.145855,-1.43232 1.747426,-2.09118 1.20315,-1.37504 0.28647,-0.40104 0.20052,-0.25782 h 0.17188 l 0.17188,0.11459 0.0573,0.34375 v 2.23443 l -0.11459,1.77606 v 0.45835 l 0.0859,1.80472 v 2.69276 l -0.0573,0.97398 0.0286,0.4297 0.0286,0.40105 0.0286,0.28646 0.11459,0.14323 0.20052,0.0573 1.05992,0.14323 0.51563,0.0286 h 0.71616 l 0.48699,0.0286 1.14586,0.086 h 0.45834 l 0.42969,-0.0286 0.31512,-0.0573 0.17187,-0.14323 0.14324,-0.22917 0.0286,-0.31511 0.0286,-0.22918 -0.0286,-0.42969 -0.11459,-0.88804 -0.0286,-0.45834 z" />
      <path
         inkscape:connector-curvature="0"
         id="path902"
         style="font-style:normal;font-variant:normal;font-weight:bold;font-stretch:normal;font-size:41.6040535px;line-height:78.00759888px;font-family:'Nexa Rust Sans';-inkscape-font-specification:'Nexa Rust Sans Bold';font-variant-ligatures:normal;font-variant-caps:normal;font-variant-numeric:normal;font-feature-settings:normal;text-align:start;letter-spacing:0px;word-spacing:0px;writing-mode:lr-tb;text-anchor:start;fill:#000000;fill-opacity:1;stroke:none;stroke-width:2.30359936px;stroke-linecap:butt;stroke-linejoin:miter;stroke-opacity:1"
         d="m 124.3223,171.39888 -0.0921,-0.43001 -0.0614,-0.18429 -0.215,-0.12286 -0.46072,-0.0921 -0.24572,-0.0307 -0.49143,0.0307 -1.2593,0.15357 h -0.49143 l -2.45718,-0.15357 -1.99645,0.0921 h -1.41288 l -0.52215,0.0307 -0.76786,0.0922 -0.36858,0.0614 -0.15357,0.15357 -0.0921,0.33786 v 0.64501 l 0.0614,0.46072 0.0614,0.92144 -0.0307,0.76786 0.0307,0.49144 0.0307,0.24572 0.0614,0.36858 0.12285,0.15357 0.18429,0.0614 1.0443,0.18429 0.49144,0.0307 h 0.70643 l 0.49144,-0.0307 0.70643,-0.0921 0.49144,-0.0307 h 0.73716 l 0.33785,0.0614 0.12287,0.18429 v 0.52215 l 0.0614,0.92144 v 0.46072 l -0.0307,0.27643 v 0.33787 l -0.0921,0.18428 -0.30714,0.215 -0.46072,0.21501 -0.49144,0.18428 -1.65859,0.39929 -0.46072,0.0922 -0.49143,0.0614 h -0.49144 l -0.52215,-0.0307 -0.52215,-0.0614 -0.92144,-0.215 -0.46072,-0.18429 -0.61429,-0.33786 -0.39929,-0.30714 -0.55286,-0.52215 -0.30715,-0.36858 -0.36857,-0.55287 -0.21501,-0.43 -0.30714,-0.73715 -0.15358,-0.49143 -0.15357,-0.70645 -0.0922,-0.49143 -0.0614,-0.73715 v -0.52215 l 0.0307,-0.52215 0.0921,-0.49143 0.18429,-0.92144 0.12286,-0.46072 0.15357,-0.49144 0.18429,-0.46072 0.24572,-0.43 0.27643,-0.39929 0.30715,-0.39929 0.33786,-0.33787 0.39928,-0.30714 0.3993,-0.27643 0.92144,-0.43001 0.49143,-0.12286 0.79858,-0.0614 0.49144,-0.0307 h 0.215 l 1.44359,0.0921 0.52215,0.0922 0.52215,0.12285 0.49144,0.18429 0.49143,0.215 0.43001,0.24572 0.39928,0.24572 0.39929,0.27643 0.33787,0.215 0.24571,-0.0307 0.18429,-0.12286 0.24572,-0.18429 0.33786,-0.24571 0.36858,-0.30715 0.55286,-0.49144 0.86001,-0.86001 0.30715,-0.33786 0.27643,-0.39929 0.18429,-0.27643 0.0921,-0.215 v -0.215 l -0.18428,-0.21501 -0.1843,-0.15357 -0.33785,-0.24572 -0.15358,-0.15357 -0.33786,-0.24572 -0.33786,-0.215 -0.15357,-0.0922 -0.3993,-0.27643 -0.46072,-0.27643 -1.10572,-0.55286 -0.46072,-0.15358 -0.67572,-0.215 -0.46072,-0.12286 -0.67573,-0.12286 -0.43,-0.0921 -0.70644,-0.0922 -0.46072,-0.0307 -0.67572,-0.0614 -0.49144,0.0307 -0.70644,0.0614 -0.46071,0.0614 -0.46072,0.0921 -0.89073,0.12286 -1.13644,0.18428 -0.49143,0.12287 -0.52215,0.15357 -0.52215,0.215 -0.46072,0.27643 -1.01359,0.58358 -0.36858,0.24572 -0.36857,0.27643 -0.39929,0.30715 -0.79859,0.67572 -0.36857,0.33786 -0.33787,0.36857 -0.33786,0.3993 -0.27643,0.36857 -0.39929,0.55287 -0.215,0.43 -0.21501,0.52215 -0.21499,0.49144 -0.15358,0.46072 -0.15358,0.49143 -0.15357,0.52215 -0.15357,0.49144 -0.12286,0.52215 -0.0921,0.52214 -0.0614,0.24572 -0.0921,1.38216 v 0.46072 l 0.0307,0.46072 0.0614,0.49144 0.12286,0.67572 0.0614,0.49143 0.0921,0.52215 0.0921,0.49143 0.15357,0.52215 0.15357,0.49144 0.21501,0.46072 0.21499,0.49143 0.76787,1.38217 0.27643,0.43 0.33787,0.46071 0.30714,0.36857 0.49144,0.49144 0.33786,0.30715 0.36858,0.27643 0.36857,0.30714 0.3993,0.27644 0.36857,0.27643 0.6143,0.33786 0.39929,0.215 0.61429,0.21501 0.46072,0.15358 0.46072,0.12285 1.07501,0.30716 0.46072,0.12285 0.49144,0.0921 0.49143,0.0614 0.70644,0.0614 0.95215,0.0614 0.46072,-0.0307 1.22859,-0.15357 0.46072,-0.0922 0.43,-0.0614 0.70645,-0.0921 0.46071,-0.0921 0.49144,-0.0922 0.46071,-0.12286 0.70645,-0.215 0.43,-0.15357 0.46072,-0.18429 0.61429,-0.30715 0.39929,-0.24571 0.21501,-0.12286 0.39929,-0.27644 0.18428,-0.18428 0.36858,-0.33787 0.52215,-0.52215 0.27643,-0.39929 0.24572,-0.39928 0.18428,-0.30715 0.0307,-0.33787 v -1.81216 l 0.0614,-1.29002 v -2.88708 l 0.12285,-1.99645 -0.0307,-0.52215 z" />
      <path
         d="m 88.792538,171.39888 -0.0921,-0.43001 -0.0614,-0.18429 -0.215,-0.12286 -0.46072,-0.0921 -0.24572,-0.0307 -0.49143,0.0307 -1.2593,0.15357 h -0.49143 l -2.45718,-0.15357 -1.99645,0.0921 h -1.41288 l -0.52215,0.0307 -0.76786,0.0922 -0.36858,0.0614 -0.15357,0.15357 -0.0921,0.33786 v 0.64501 l 0.0614,0.46072 0.0614,0.92144 -0.0307,0.76786 0.0307,0.49144 0.0307,0.24572 0.0614,0.36858 0.12285,0.15357 0.18429,0.0614 1.0443,0.18429 0.49144,0.0307 h 0.70643 l 0.49144,-0.0307 0.70643,-0.0921 0.49144,-0.0307 h 0.73716 l 0.33785,0.0614 0.12287,0.18429 v 0.52215 l 0.0614,0.92144 v 0.46072 l -0.0307,0.27643 v 0.33787 l -0.0921,0.18428 -0.30714,0.215 -0.46072,0.21501 -0.49144,0.18428 -1.65859,0.39929 -0.46072,0.0922 -0.49143,0.0614 h -0.49144 l -0.52215,-0.0307 -0.52215,-0.0614 -0.92144,-0.215 -0.46072,-0.18429 -0.61429,-0.33786 -0.39929,-0.30714 -0.55286,-0.52215 -0.30715,-0.36858 -0.36857,-0.55287 -0.21501,-0.43 -0.30714,-0.73715 -0.15358,-0.49143 -0.15357,-0.70645 -0.0922,-0.49143 -0.0614,-0.73715 v -0.52215 l 0.0307,-0.52215 0.0921,-0.49143 0.18429,-0.92144 0.12286,-0.46072 0.15357,-0.49144 0.18429,-0.46072 0.24572,-0.43 0.27643,-0.39929 0.30715,-0.39929 0.33786,-0.33787 0.39928,-0.30714 0.3993,-0.27643 0.92144,-0.43001 0.49143,-0.12286 0.79858,-0.0614 0.49144,-0.0307 h 0.215 l 1.44359,0.0921 0.52215,0.0922 0.52215,0.12285 0.49144,0.18429 0.49143,0.215 0.43001,0.24572 0.39928,0.24572 0.39929,0.27643 0.33787,0.215 0.24571,-0.0307 0.18429,-0.12286 0.24572,-0.18429 0.33786,-0.24571 0.36858,-0.30715 0.55286,-0.49144 0.86001,-0.86001 0.30715,-0.33786 0.27643,-0.39929 0.18429,-0.27643 0.0921,-0.215 v -0.215 l -0.18428,-0.21501 -0.1843,-0.15357 -0.33785,-0.24572 -0.15358,-0.15357 -0.33786,-0.24572 -0.33786,-0.215 -0.15357,-0.0922 -0.3993,-0.27643 -0.46072,-0.27643 -1.10572,-0.55286 -0.46072,-0.15358 -0.67572,-0.215 -0.46072,-0.12286 -0.67573,-0.12286 -0.43,-0.0921 -0.70644,-0.0922 -0.46072,-0.0307 -0.67572,-0.0614 -0.49144,0.0307 -0.70644,0.0614 -0.46071,0.0614 -0.46072,0.0921 -0.89073,0.12286 -1.13644,0.18428 -0.49143,0.12287 -0.52215,0.15357 -0.52215,0.215 -0.46072,0.27643 -1.01359,0.58358 -0.36858,0.24572 -0.36857,0.27643 -0.39929,0.30715 -0.79859,0.67572 -0.36857,0.33786 -0.33787,0.36857 -0.33786,0.3993 -0.27643,0.36857 -0.39929,0.55287 -0.215,0.43 -0.21501,0.52215 -0.21499,0.49144 -0.15358,0.46072 -0.15358,0.49143 -0.15357,0.52215 -0.15357,0.49144 -0.12286,0.52215 -0.0921,0.52214 -0.0614,0.24572 -0.0921,1.38216 v 0.46072 l 0.0307,0.46072 0.0614,0.49144 0.12286,0.67572 0.0614,0.49143 0.0921,0.52215 0.0921,0.49143 0.15357,0.52215 0.15357,0.49144 0.21501,0.46072 0.21499,0.49143 0.76787,1.38217 0.27643,0.43 0.33787,0.46071 0.30714,0.36857 0.49144,0.49144 0.33786,0.30715 0.36858,0.27643 0.36857,0.30714 0.3993,0.27644 0.36857,0.27643 0.6143,0.33786 0.39929,0.215 0.61429,0.21501 0.46072,0.15358 0.46072,0.12285 1.07501,0.30716 0.46072,0.12285 0.49144,0.0921 0.49143,0.0614 0.70644,0.0614 0.95215,0.0614 0.46072,-0.0307 1.22859,-0.15357 0.46072,-0.0922 0.43,-0.0614 0.70645,-0.0921 0.46071,-0.0921 0.49144,-0.0922 0.46071,-0.12286 0.70645,-0.215 0.43,-0.15357 0.46072,-0.18429 0.61429,-0.30715 0.39929,-0.24571 0.21501,-0.12286 0.39929,-0.27644 0.18428,-0.18428 0.36858,-0.33787 0.52215,-0.52215 0.27643,-0.39929 0.24572,-0.39928 0.18428,-0.30715 0.0307,-0.33787 v -1.81216 l 0.0614,-1.29002 v -2.88708 l 0.12285,-1.99645 -0.0307,-0.52215 z"
         style="font-style:normal;font-variant:normal;font-weight:bold;font-stretch:normal;font-size:41.6040535px;line-height:78.00759888px;font-family:'Nexa Rust Sans';-inkscape-font-specification:'Nexa Rust Sans Bold';font-variant-ligatures:normal;font-variant-caps:normal;font-variant-numeric:normal;font-feature-settings:normal;text-align:start;letter-spacing:0px;word-spacing:0px;writing-mode:lr-tb;text-anchor:start;fill:#000000;fill-opacity:1;stroke:none;stroke-width:2.30359936px;stroke-linecap:butt;stroke-linejoin:miter;stroke-opacity:1"
         id="path904"
         inkscape:connector-curvature="0" />
    </g>
    <g
       id="g1254"
       transform="translate(-20.732858,75.141839)">
      <g
         id="g991"
         transform="matrix(0.57733184,0.33332269,-0.33332269,0.57733184,82.498136,-11.213714)">
        <path
           id="path963"
           d="m 32.759401,105.83173 a 57.452381,57.452381 0 0 1 30.56867,-8.836669 57.452381,57.452381 0 0 1 57.452829,57.452829 57.452381,57.452381 0 0 1 -57.452829,57.4523 57.452381,57.452381 0 0 1 -30.50615,-8.84907 68.035712,68.035712 0 0 0 47.51545,19.43241 68.035712,68.035712 0 0 0 68.035639,-68.03564 68.035712,68.035712 0 0 0 -68.035639,-68.036159 68.035712,68.035712 0 0 0 -47.57797,19.419999 z"
           style="opacity:1;fill:#d4aa00;fill-opacity:1;stroke:none;stroke-width:6.25;stroke-linecap:round;stroke-linejoin:round;stroke-miterlimit:4;stroke-dasharray:none;stroke-dashoffset:0;stroke-opacity:0.89626555;paint-order:stroke fill markers"
           inkscape:connector-curvature="0" />
        <path
           inkscape:connector-curvature="0"
           style="opacity:1;fill:#d4aa00;fill-opacity:1;stroke:none;stroke-width:5.625;stroke-linecap:round;stroke-linejoin:round;stroke-miterlimit:4;stroke-dasharray:none;stroke-dashoffset:0;stroke-opacity:0.89626555;paint-order:stroke fill markers"
           d="m 44.320761,110.69332 a 51.707143,51.707143 0 0 1 27.51181,-7.953 51.707143,51.707143 0 0 1 51.707539,51.70754 51.707143,51.707143 0 0 1 -51.707539,51.70707 51.707143,51.707143 0 0 1 -27.45554,-7.96416 61.23214,61.23214 0 0 0 42.7639,17.48916 61.23214,61.23214 0 0 0 61.232079,-61.23207 61.23214,61.23214 0 0 0 -61.232079,-61.232539 61.23214,61.23214 0 0 0 -42.82017,17.477999 z"
           id="path965" />
        <path
           id="path967"
           d="m 54.725981,115.06875 a 46.536429,46.536429 0 0 1 24.76063,-7.1577 46.536429,46.536429 0 0 1 46.536789,46.53679 46.536429,46.536429 0 0 1 -46.536789,46.53636 46.536429,46.536429 0 0 1 -24.70998,-7.16774 55.108926,55.108926 0 0 0 38.48751,15.74024 55.108926,55.108926 0 0 0 55.108869,-55.10886 55.108926,55.108926 0 0 0 -55.108869,-55.109289 55.108926,55.108926 0 0 0 -38.53816,15.730199 z"
           style="opacity:1;fill:#d4aa00;fill-opacity:1;stroke:none;stroke-width:5.0625;stroke-linecap:round;stroke-linejoin:round;stroke-miterlimit:4;stroke-dasharray:none;stroke-dashoffset:0;stroke-opacity:0.89626555;paint-order:stroke fill markers"
           inkscape:connector-curvature="0" />
        <path
           inkscape:connector-curvature="0"
           style="opacity:1;fill:#d4aa00;fill-opacity:1;stroke:none;stroke-width:4.5562501;stroke-linecap:round;stroke-linejoin:round;stroke-miterlimit:4;stroke-dasharray:none;stroke-dashoffset:0;stroke-opacity:0.89626555;paint-order:stroke fill markers"
           d="m 64.090681,119.00664 a 41.882786,41.882786 0 0 1 22.28457,-6.44193 41.882786,41.882786 0 0 1 41.883109,41.88311 41.882786,41.882786 0 0 1 -41.883109,41.88273 41.882786,41.882786 0 0 1 -22.23898,-6.45098 49.598033,49.598033 0 0 0 34.63876,14.16623 49.598033,49.598033 0 0 0 49.597979,-49.59798 49.598033,49.598033 0 0 0 -49.597979,-49.59836 49.598033,49.598033 0 0 0 -34.68435,14.15718 z"
           id="path969" />
        <path
           id="path971"
           d="m 72.518921,122.55074 a 37.694507,37.694507 0 0 1 20.05611,-5.79774 37.694507,37.694507 0 0 1 37.694799,37.6948 37.694507,37.694507 0 0 1 -37.694799,37.69445 37.694507,37.694507 0 0 1 -20.01508,-5.80587 44.63823,44.63823 0 0 0 31.174879,12.7496 44.63823,44.63823 0 0 0 44.63818,-44.63818 44.63823,44.63823 0 0 0 -44.63818,-44.63852 44.63823,44.63823 0 0 0 -31.215909,12.74146 z"
           style="opacity:1;fill:#d4aa00;fill-opacity:1;stroke:none;stroke-width:4.10062504;stroke-linecap:round;stroke-linejoin:round;stroke-miterlimit:4;stroke-dasharray:none;stroke-dashoffset:0;stroke-opacity:0.89626555;paint-order:stroke fill markers"
           inkscape:connector-curvature="0" />
        <path
           inkscape:connector-curvature="0"
           style="opacity:1;fill:#d4aa00;fill-opacity:1;stroke:none;stroke-width:3.69056249;stroke-linecap:round;stroke-linejoin:round;stroke-miterlimit:4;stroke-dasharray:none;stroke-dashoffset:0;stroke-opacity:0.89626555;paint-order:stroke fill markers"
           d="m 80.104321,125.74043 a 33.925056,33.925056 0 0 1 18.0505,-5.21797 33.925056,33.925056 0 0 1 33.925319,33.92532 33.925056,33.925056 0 0 1 -33.925319,33.92501 33.925056,33.925056 0 0 1 -18.01357,-5.22529 40.174407,40.174407 0 0 0 28.057389,11.47464 40.174407,40.174407 0 0 0 40.17437,-40.17436 40.174407,40.174407 0 0 0 -40.17437,-40.17467 40.174407,40.174407 0 0 0 -28.094319,11.46732 z"
           id="path973" />
        <path
           id="path975"
           d="m 86.931185,128.61115 a 30.53255,30.53255 0 0 1 16.245455,-4.69617 30.53255,30.53255 0 0 1 30.53278,30.53278 30.53255,30.53255 0 0 1 -30.53278,30.53251 30.53255,30.53255 0 0 1 -16.212218,-4.70276 36.156966,36.156966 0 0 0 25.251648,10.32718 36.156966,36.156966 0 0 0 36.15694,-36.15693 36.156966,36.156966 0 0 0 -36.15694,-36.1572 36.156966,36.156966 0 0 0 -25.284885,10.32059 z"
           style="opacity:1;fill:#d4aa00;fill-opacity:1;stroke:none;stroke-width:3.32150626;stroke-linecap:round;stroke-linejoin:round;stroke-miterlimit:4;stroke-dasharray:none;stroke-dashoffset:0;stroke-opacity:0.89626555;paint-order:stroke fill markers"
           inkscape:connector-curvature="0" />
        <path
           inkscape:connector-curvature="0"
           style="opacity:1;fill:#d4aa00;fill-opacity:1;stroke:none;stroke-width:2.98935556;stroke-linecap:round;stroke-linejoin:round;stroke-miterlimit:4;stroke-dasharray:none;stroke-dashoffset:0;stroke-opacity:0.89626555;paint-order:stroke fill markers"
           d="m 93.075366,131.1948 a 27.479295,27.479295 0 0 1 14.620914,-4.22656 27.479295,27.479295 0 0 1 27.4795,27.47951 27.479295,27.479295 0 0 1 -27.4795,27.47926 27.479295,27.479295 0 0 1 -14.591,-4.23249 32.541269,32.541269 0 0 0 22.72648,9.29446 32.541269,32.541269 0 0 0 32.54125,-32.54123 32.541269,32.541269 0 0 0 -32.54125,-32.54148 32.541269,32.541269 0 0 0 -22.756394,9.28853 z"
           id="path977" />
        <path
           id="path979"
           d="m 98.605128,133.52008 a 24.731365,24.731365 0 0 1 13.158822,-3.8039 24.731365,24.731365 0 0 1 24.73155,24.73156 24.731365,24.731365 0 0 1 -24.73155,24.73133 24.731365,24.731365 0 0 1 -13.131899,-3.80924 29.287142,29.287142 0 0 0 20.453829,8.36501 29.287142,29.287142 0 0 0 29.28713,-29.2871 29.287142,29.287142 0 0 0 -29.28713,-29.28733 29.287142,29.287142 0 0 0 -20.480752,8.35967 z"
           style="opacity:1;fill:#d4aa00;fill-opacity:1;stroke:none;stroke-width:2.69041991;stroke-linecap:round;stroke-linejoin:round;stroke-miterlimit:4;stroke-dasharray:none;stroke-dashoffset:0;stroke-opacity:0.89626555;paint-order:stroke fill markers"
           inkscape:connector-curvature="0" />
        <path
           inkscape:connector-curvature="0"
           style="opacity:1;fill:#d4aa00;fill-opacity:1;stroke:none;stroke-width:2.4213779;stroke-linecap:round;stroke-linejoin:round;stroke-miterlimit:4;stroke-dasharray:none;stroke-dashoffset:0;stroke-opacity:0.89626555;paint-order:stroke fill markers"
           d="m 103.58191,135.61283 a 22.258229,22.258229 0 0 1 11.84294,-3.42351 22.258229,22.258229 0 0 1 22.2584,22.25841 22.258229,22.258229 0 0 1 -22.2584,22.2582 22.258229,22.258229 0 0 1 -11.81871,-3.42832 26.358428,26.358428 0 0 0 18.40845,7.52851 26.358428,26.358428 0 0 0 26.35842,-26.35839 26.358428,26.358428 0 0 0 -26.35842,-26.3586 26.358428,26.358428 0 0 0 -18.43268,7.5237 z"
           id="path981" />
        <path
           id="path983"
           d="m 108.06102,137.49631 a 20.032406,20.032406 0 0 1 10.65864,-3.08116 20.032406,20.032406 0 0 1 20.03256,20.03257 20.032406,20.032406 0 0 1 -20.03256,20.03238 20.032406,20.032406 0 0 1 -10.63683,-3.08549 23.722585,23.722585 0 0 0 16.5676,6.77566 23.722585,23.722585 0 0 0 23.72258,-23.72255 23.722585,23.722585 0 0 0 -23.72258,-23.72274 23.722585,23.722585 0 0 0 -16.58941,6.77133 z"
           style="opacity:1;fill:#d4aa00;fill-opacity:1;stroke:none;stroke-width:2.17923999;stroke-linecap:round;stroke-linejoin:round;stroke-miterlimit:4;stroke-dasharray:none;stroke-dashoffset:0;stroke-opacity:0.89626555;paint-order:stroke fill markers"
           inkscape:connector-curvature="0" />
        <ellipse
           ry="17.638533"
           rx="23.908264"
           cy="154.50298"
           cx="126.43303"
           id="ellipse985"
           style="opacity:1;fill:#ffffff;fill-opacity:1;stroke:none;stroke-width:5.17745543;stroke-linecap:round;stroke-linejoin:round;stroke-miterlimit:4;stroke-dasharray:none;stroke-dashoffset:0;stroke-opacity:0.89626555;paint-order:stroke fill markers" />
        <text
           id="text989"
           y="166.81911"
           x="29.426844"
           style="font-style:normal;font-variant:normal;font-weight:bold;font-stretch:normal;font-size:33.41345596px;line-height:62.65023422px;font-family:QuentinCaps;-inkscape-font-specification:'QuentinCaps Bold';font-variant-ligatures:normal;font-variant-caps:normal;font-variant-numeric:normal;font-feature-settings:normal;text-align:start;letter-spacing:0px;word-spacing:0px;writing-mode:lr-tb;text-anchor:start;fill:#d4aa00;fill-opacity:1;stroke:none;stroke-width:2.50600934px;stroke-linecap:butt;stroke-linejoin:miter;stroke-opacity:1"
           xml:space="preserve"><tspan
             style="font-style:normal;font-variant:normal;font-weight:bold;font-stretch:normal;font-family:'Nexa Rust Sans';-inkscape-font-specification:'Nexa Rust Sans Bold';fill:#d4aa00;fill-opacity:1;stroke-width:2.50600934px"
             y="166.81911"
             x="29.426844"
             id="tspan987"
             sodipodi:role="line">MAGG</tspan></text>
      </g>
      <g
         transform="matrix(0.66664538,0,0,0.66664538,120.69209,2.2014098)"
         id="g1080">
        <path
           inkscape:connector-curvature="0"
           style="opacity:1;fill:#d4aa00;fill-opacity:1;stroke:none;stroke-width:6.25;stroke-linecap:round;stroke-linejoin:round;stroke-miterlimit:4;stroke-dasharray:none;stroke-dashoffset:0;stroke-opacity:0.89626555;paint-order:stroke fill markers"
           d="m 32.759401,105.83173 a 57.452381,57.452381 0 0 1 30.56867,-8.836669 57.452381,57.452381 0 0 1 57.452829,57.452829 57.452381,57.452381 0 0 1 -57.452829,57.4523 57.452381,57.452381 0 0 1 -30.50615,-8.84907 68.035712,68.035712 0 0 0 47.51545,19.43241 68.035712,68.035712 0 0 0 68.035639,-68.03564 68.035712,68.035712 0 0 0 -68.035639,-68.036159 68.035712,68.035712 0 0 0 -47.57797,19.419999 z"
           id="path1052" />
        <path
           id="path1054"
           d="m 44.320761,110.69332 a 51.707143,51.707143 0 0 1 27.51181,-7.953 51.707143,51.707143 0 0 1 51.707539,51.70754 51.707143,51.707143 0 0 1 -51.707539,51.70707 51.707143,51.707143 0 0 1 -27.45554,-7.96416 61.23214,61.23214 0 0 0 42.7639,17.48916 61.23214,61.23214 0 0 0 61.232079,-61.23207 61.23214,61.23214 0 0 0 -61.232079,-61.232539 61.23214,61.23214 0 0 0 -42.82017,17.477999 z"
           style="opacity:1;fill:#d4aa00;fill-opacity:1;stroke:none;stroke-width:5.625;stroke-linecap:round;stroke-linejoin:round;stroke-miterlimit:4;stroke-dasharray:none;stroke-dashoffset:0;stroke-opacity:0.89626555;paint-order:stroke fill markers"
           inkscape:connector-curvature="0" />
        <path
           inkscape:connector-curvature="0"
           style="opacity:1;fill:#d4aa00;fill-opacity:1;stroke:none;stroke-width:5.0625;stroke-linecap:round;stroke-linejoin:round;stroke-miterlimit:4;stroke-dasharray:none;stroke-dashoffset:0;stroke-opacity:0.89626555;paint-order:stroke fill markers"
           d="m 54.725981,115.06875 a 46.536429,46.536429 0 0 1 24.76063,-7.1577 46.536429,46.536429 0 0 1 46.536789,46.53679 46.536429,46.536429 0 0 1 -46.536789,46.53636 46.536429,46.536429 0 0 1 -24.70998,-7.16774 55.108926,55.108926 0 0 0 38.48751,15.74024 55.108926,55.108926 0 0 0 55.108869,-55.10886 55.108926,55.108926 0 0 0 -55.108869,-55.109289 55.108926,55.108926 0 0 0 -38.53816,15.730199 z"
           id="path1056" />
        <path
           id="path1058"
           d="m 64.090681,119.00664 a 41.882786,41.882786 0 0 1 22.28457,-6.44193 41.882786,41.882786 0 0 1 41.883109,41.88311 41.882786,41.882786 0 0 1 -41.883109,41.88273 41.882786,41.882786 0 0 1 -22.23898,-6.45098 49.598033,49.598033 0 0 0 34.63876,14.16623 49.598033,49.598033 0 0 0 49.597979,-49.59798 49.598033,49.598033 0 0 0 -49.597979,-49.59836 49.598033,49.598033 0 0 0 -34.68435,14.15718 z"
           style="opacity:1;fill:#d4aa00;fill-opacity:1;stroke:none;stroke-width:4.5562501;stroke-linecap:round;stroke-linejoin:round;stroke-miterlimit:4;stroke-dasharray:none;stroke-dashoffset:0;stroke-opacity:0.89626555;paint-order:stroke fill markers"
           inkscape:connector-curvature="0" />
        <path
           inkscape:connector-curvature="0"
           style="opacity:1;fill:#d4aa00;fill-opacity:1;stroke:none;stroke-width:4.10062504;stroke-linecap:round;stroke-linejoin:round;stroke-miterlimit:4;stroke-dasharray:none;stroke-dashoffset:0;stroke-opacity:0.89626555;paint-order:stroke fill markers"
           d="m 72.518921,122.55074 a 37.694507,37.694507 0 0 1 20.05611,-5.79774 37.694507,37.694507 0 0 1 37.694799,37.6948 37.694507,37.694507 0 0 1 -37.694799,37.69445 37.694507,37.694507 0 0 1 -20.01508,-5.80587 44.63823,44.63823 0 0 0 31.174879,12.7496 44.63823,44.63823 0 0 0 44.63818,-44.63818 44.63823,44.63823 0 0 0 -44.63818,-44.63852 44.63823,44.63823 0 0 0 -31.215909,12.74146 z"
           id="path1060" />
        <path
           id="path1062"
           d="m 80.104321,125.74043 a 33.925056,33.925056 0 0 1 18.0505,-5.21797 33.925056,33.925056 0 0 1 33.925319,33.92532 33.925056,33.925056 0 0 1 -33.925319,33.92501 33.925056,33.925056 0 0 1 -18.01357,-5.22529 40.174407,40.174407 0 0 0 28.057389,11.47464 40.174407,40.174407 0 0 0 40.17437,-40.17436 40.174407,40.174407 0 0 0 -40.17437,-40.17467 40.174407,40.174407 0 0 0 -28.094319,11.46732 z"
           style="opacity:1;fill:#d4aa00;fill-opacity:1;stroke:none;stroke-width:3.69056249;stroke-linecap:round;stroke-linejoin:round;stroke-miterlimit:4;stroke-dasharray:none;stroke-dashoffset:0;stroke-opacity:0.89626555;paint-order:stroke fill markers"
           inkscape:connector-curvature="0" />
        <path
           inkscape:connector-curvature="0"
           style="opacity:1;fill:#d4aa00;fill-opacity:1;stroke:none;stroke-width:3.32150626;stroke-linecap:round;stroke-linejoin:round;stroke-miterlimit:4;stroke-dasharray:none;stroke-dashoffset:0;stroke-opacity:0.89626555;paint-order:stroke fill markers"
           d="m 86.931185,128.61115 a 30.53255,30.53255 0 0 1 16.245455,-4.69617 30.53255,30.53255 0 0 1 30.53278,30.53278 30.53255,30.53255 0 0 1 -30.53278,30.53251 30.53255,30.53255 0 0 1 -16.212218,-4.70276 36.156966,36.156966 0 0 0 25.251648,10.32718 36.156966,36.156966 0 0 0 36.15694,-36.15693 36.156966,36.156966 0 0 0 -36.15694,-36.1572 36.156966,36.156966 0 0 0 -25.284885,10.32059 z"
           id="path1064" />
        <path
           id="path1066"
           d="m 93.075366,131.1948 a 27.479295,27.479295 0 0 1 14.620914,-4.22656 27.479295,27.479295 0 0 1 27.4795,27.47951 27.479295,27.479295 0 0 1 -27.4795,27.47926 27.479295,27.479295 0 0 1 -14.591,-4.23249 32.541269,32.541269 0 0 0 22.72648,9.29446 32.541269,32.541269 0 0 0 32.54125,-32.54123 32.541269,32.541269 0 0 0 -32.54125,-32.54148 32.541269,32.541269 0 0 0 -22.756394,9.28853 z"
           style="opacity:1;fill:#d4aa00;fill-opacity:1;stroke:none;stroke-width:2.98935556;stroke-linecap:round;stroke-linejoin:round;stroke-miterlimit:4;stroke-dasharray:none;stroke-dashoffset:0;stroke-opacity:0.89626555;paint-order:stroke fill markers"
           inkscape:connector-curvature="0" />
        <path
           inkscape:connector-curvature="0"
           style="opacity:1;fill:#d4aa00;fill-opacity:1;stroke:none;stroke-width:2.69041991;stroke-linecap:round;stroke-linejoin:round;stroke-miterlimit:4;stroke-dasharray:none;stroke-dashoffset:0;stroke-opacity:0.89626555;paint-order:stroke fill markers"
           d="m 98.605128,133.52008 a 24.731365,24.731365 0 0 1 13.158822,-3.8039 24.731365,24.731365 0 0 1 24.73155,24.73156 24.731365,24.731365 0 0 1 -24.73155,24.73133 24.731365,24.731365 0 0 1 -13.131899,-3.80924 29.287142,29.287142 0 0 0 20.453829,8.36501 29.287142,29.287142 0 0 0 29.28713,-29.2871 29.287142,29.287142 0 0 0 -29.28713,-29.28733 29.287142,29.287142 0 0 0 -20.480752,8.35967 z"
           id="path1068" />
        <path
           id="path1070"
           d="m 103.58191,135.61283 a 22.258229,22.258229 0 0 1 11.84294,-3.42351 22.258229,22.258229 0 0 1 22.2584,22.25841 22.258229,22.258229 0 0 1 -22.2584,22.2582 22.258229,22.258229 0 0 1 -11.81871,-3.42832 26.358428,26.358428 0 0 0 18.40845,7.52851 26.358428,26.358428 0 0 0 26.35842,-26.35839 26.358428,26.358428 0 0 0 -26.35842,-26.3586 26.358428,26.358428 0 0 0 -18.43268,7.5237 z"
           style="opacity:1;fill:#d4aa00;fill-opacity:1;stroke:none;stroke-width:2.4213779;stroke-linecap:round;stroke-linejoin:round;stroke-miterlimit:4;stroke-dasharray:none;stroke-dashoffset:0;stroke-opacity:0.89626555;paint-order:stroke fill markers"
           inkscape:connector-curvature="0" />
        <path
           inkscape:connector-curvature="0"
           style="opacity:1;fill:#d4aa00;fill-opacity:1;stroke:none;stroke-width:2.17923999;stroke-linecap:round;stroke-linejoin:round;stroke-miterlimit:4;stroke-dasharray:none;stroke-dashoffset:0;stroke-opacity:0.89626555;paint-order:stroke fill markers"
           d="m 108.06102,137.49631 a 20.032406,20.032406 0 0 1 10.65864,-3.08116 20.032406,20.032406 0 0 1 20.03256,20.03257 20.032406,20.032406 0 0 1 -20.03256,20.03238 20.032406,20.032406 0 0 1 -10.63683,-3.08549 23.722585,23.722585 0 0 0 16.5676,6.77566 23.722585,23.722585 0 0 0 23.72258,-23.72255 23.722585,23.722585 0 0 0 -23.72258,-23.72274 23.722585,23.722585 0 0 0 -16.58941,6.77133 z"
           id="path1072" />
        <ellipse
           style="opacity:1;fill:#ffffff;fill-opacity:1;stroke:none;stroke-width:5.17745543;stroke-linecap:round;stroke-linejoin:round;stroke-miterlimit:4;stroke-dasharray:none;stroke-dashoffset:0;stroke-opacity:0.89626555;paint-order:stroke fill markers"
           id="ellipse1074"
           cx="126.43303"
           cy="154.50298"
           rx="23.908264"
           ry="17.638533" />
        <text
           xml:space="preserve"
           style="font-style:normal;font-variant:normal;font-weight:bold;font-stretch:normal;font-size:33.41345596px;line-height:62.65023422px;font-family:QuentinCaps;-inkscape-font-specification:'QuentinCaps Bold';font-variant-ligatures:normal;font-variant-caps:normal;font-variant-numeric:normal;font-feature-settings:normal;text-align:start;letter-spacing:0px;word-spacing:0px;writing-mode:lr-tb;text-anchor:start;fill:#d4aa00;fill-opacity:1;stroke:none;stroke-width:2.50600934px;stroke-linecap:butt;stroke-linejoin:miter;stroke-opacity:1"
           x="29.426844"
           y="166.81911"
           id="text1078"><tspan
             sodipodi:role="line"
             id="tspan1076"
             x="29.426844"
             y="166.81911"
             style="font-style:normal;font-variant:normal;font-weight:bold;font-stretch:normal;font-family:'Nexa Rust Sans';-inkscape-font-specification:'Nexa Rust Sans Bold';fill:#d4aa00;fill-opacity:1;stroke-width:2.50600934px">MAGG</tspan></text>
      </g>
    </g>
    <g
       id="g1222"
       transform="translate(5.2043571,-1.4790543e-5)">
      <text
         id="text865"
         y="35.364712"
         x="52.625454"
         style="font-style:normal;font-variant:normal;font-weight:bold;font-stretch:normal;font-size:29.22616386px;line-height:54.79906082px;font-family:QuentinCaps;-inkscape-font-specification:'QuentinCaps Bold';font-variant-ligatures:normal;font-variant-caps:normal;font-variant-numeric:normal;font-feature-settings:normal;text-align:start;letter-spacing:0px;word-spacing:0px;writing-mode:lr-tb;text-anchor:start;fill:#d4aa00;fill-opacity:1;stroke:none;stroke-width:2.19196248px;stroke-linecap:butt;stroke-linejoin:miter;stroke-opacity:1"
         xml:space="preserve"><tspan
           style="font-style:normal;font-variant:normal;font-weight:bold;font-stretch:normal;font-family:'Nexa Rust Sans';-inkscape-font-specification:'Nexa Rust Sans Bold';fill:#d4aa00;fill-opacity:1;stroke-width:2.19196248px"
           y="35.364712"
           x="52.625454"
           id="tspan863"
           sodipodi:role="line">MAGG</tspan></text>
      <g
         transform="matrix(0.80747873,0,0,0.80747873,9.2405409,-129.75914)"
         id="g1043">
        <path
           style="opacity:1;fill:#d4aa00;fill-opacity:1;stroke:none;stroke-width:4.31986237;stroke-linecap:round;stroke-linejoin:round;stroke-miterlimit:4;stroke-dasharray:none;stroke-dashoffset:0;stroke-opacity:0.89626555;paint-order:stroke fill markers"
           d="m 171.93465,174.48363 c 5.98935,1.92728 9.78016,5.88229 9.78907,10.2131 -0.008,1.33444 -0.37631,2.65769 -1.08934,3.90971 1.12601,0.16177 2.24137,0.34001 3.34449,0.53448 -0.25805,1.53515 -1.28783,3.01787 -3.00188,4.32224 2.29665,-1.12353 4.07946,-2.46282 5.23534,-3.93292 l 0.045,0.008 c 0.0161,0.13904 0.0264,0.27823 0.031,0.41746 -0.01,1.99861 -1.19781,3.95549 -3.42873,5.64622 2.58338,-1.26483 4.58056,-2.77527 5.86165,-4.43309 0.0217,0.17841 0.035,0.35702 0.0398,0.53572 -0.0104,2.22063 -1.33051,4.3949 -3.80906,6.27351 2.87059,-1.4054 5.0898,-3.08373 6.51329,-4.92584 0.0241,0.19839 0.0387,0.39701 0.0439,0.59571 -0.0116,2.46731 -1.47839,4.88313 -4.23229,6.97043 3.18922,-1.56152 5.65475,-3.42624 7.23625,-5.47291 0.0268,0.22034 0.0432,0.44093 0.0491,0.66162 -0.0129,2.74145 -1.64269,5.42567 -4.70256,7.74488 3.54378,-1.73499 6.28345,-3.80688 8.04085,-6.08096 0.0297,0.24483 0.0478,0.48996 0.0543,0.73518 -0.0143,3.04607 -1.82514,6.02855 -5.225,8.60548 3.93774,-1.92799 6.98185,-4.23036 8.93434,-6.75739 0.0331,0.27221 0.0533,0.54475 0.0605,0.8174 -0.0159,3.3846 -2.02805,6.69855 -5.80585,9.56185 4.37494,-2.14206 7.75709,-4.70005 9.92652,-7.50763 0.0369,0.30222 0.0595,0.60479 0.0677,0.9075 -0.0178,3.76064 -2.25365,7.44277 -6.45128,10.62415 4.86104,-2.3799 8.61911,-5.22195 11.02982,-8.34132 0.0409,0.33576 0.0659,0.67192 0.0749,1.00822 -0.0198,4.17844 -2.50409,8.26963 -7.16804,11.80445 5.40129,-2.64438 9.577,-5.80227 12.25558,-9.26832 0.0455,0.37308 0.0732,0.74661 0.0832,1.1203 -0.0218,4.64279 -2.78214,9.18866 -7.96437,13.11633 6.00157,-2.9384 10.64124,-6.44739 13.61726,-10.29878 0.0506,0.41469 0.0814,0.82987 0.0925,1.24523 -0.0242,5.15862 -3.09115,10.20954 -8.84907,14.57361 12.43357,-6.06394 19.40806,-14.211 19.4324,-22.69941 -0.0512,-16.47138 -25.88602,-30.32045 -60.13121,-32.23411 z"
           id="path834"
           inkscape:connector-curvature="0"
           sodipodi:nodetypes="ccccccccccccccccccccccccccccccccccccccc" />
        <path
           inkscape:connector-curvature="0"
           id="path1039"
           d="m -3.7916469,206.70729 c 0.005,8.49792 6.97584,16.657 19.4199999,22.72929 -5.7648599,-4.37329 -8.8279099,-9.43529 -8.8366699,-14.60349 0.0235,-0.40246 0.0656,-0.80463 0.12609,-1.20622 2.96576,3.84519 7.5895599,7.34978 13.5717799,10.28668 -5.18841,-3.93598 -7.94516,-8.49182 -7.953,-13.14324 0.0212,-0.36235 0.0591,-0.72443 0.11369,-1.08598 2.66918,3.46073 6.83066,6.61494 12.21476,9.2582 -4.66946,-3.54231 -7.15053,-7.64246 -7.1577,-11.82864 0.0191,-0.32611 0.0532,-0.65198 0.10231,-0.97737 2.40235,3.1147 6.14781,5.95351 10.99365,8.33244 -4.20267,-3.18817 -6.43566,-6.87844 -6.44199,-10.64612 0.0172,-0.29325 0.0479,-0.58627 0.092,-0.87887 2.16221,2.80297 5.533,5.35765 9.89397,7.4985 -3.78227,-2.86932 -5.79189,-6.19051 -5.79758,-9.58136 0.0154,-0.26408 0.043,-0.52797 0.0827,-0.79147 1.94584,2.52278 4.97949,4.82212 8.90437,6.74899 -3.40394,-2.58233 -5.21257,-5.57131 -5.21777,-8.623 0.0139,-0.23764 0.0387,-0.47511 0.0744,-0.71223 1.75128,2.2705 4.48158,4.33988 8.01398,6.07405 -3.06358,-2.32417 -4.69129,-5.01434 -4.69583,-7.76092 0.0125,-0.21392 0.035,-0.42768 0.0672,-0.64113 1.5761,2.04347 4.03333,3.90595 7.21248,5.46674 -2.75732,-2.09172 -4.22238,-4.51284 -4.22661,-6.98476 0.0113,-0.19259 0.0315,-0.38503 0.0605,-0.57719 1.41856,1.83918 3.6302,3.51545 6.49159,4.92017 -2.4816,-1.88257 -3.80014,-4.06161 -3.8039,-6.28636 0.0101,-0.17323 0.0282,-0.34633 0.0543,-0.51917 1.27681,1.65517 3.26731,3.16373 5.84254,4.4279 -2.2334,-1.69426 -3.4201,-3.65534 -3.42356,-5.65757 0.009,-0.13161 0.0224,-0.26314 0.0413,-0.3945 l 0.0543,-0.0116 c 1.15098,1.46593 2.9253,2.80202 5.21105,3.92403 -1.72361,-1.31184 -2.75496,-2.80394 -3.0055,-4.34816 1.13922,-0.1915 2.2908,-0.3658 3.45302,-0.52263 -0.70886,-1.25126 -1.07404,-2.57321 -1.07901,-3.90601 0.003,-4.33356 3.79339,-8.29271 9.78597,-10.22199 -34.29485,1.89002 -60.1905299,15.75078 -60.2386999,32.243 z"
           style="opacity:1;fill:#d4aa00;fill-opacity:1;stroke:none;stroke-width:4.31986237;stroke-linecap:round;stroke-linejoin:round;stroke-miterlimit:4;stroke-dasharray:none;stroke-dashoffset:0;stroke-opacity:0.89626555;paint-order:stroke fill markers"
           sodipodi:nodetypes="ccccccccccccccccccccccccccccccccccccccc" />
      </g>
      <text
         transform="scale(0.99235844,1.0077004)"
         id="text1084"
         y="48.651726"
         x="53.649338"
         style="font-style:normal;font-variant:normal;font-weight:bold;font-stretch:normal;font-size:14.71886253px;line-height:27.59786606px;font-family:'Nexa Rust Sans';-inkscape-font-specification:'Nexa Rust Sans Bold';font-variant-ligatures:normal;font-variant-caps:normal;font-variant-numeric:normal;font-feature-settings:normal;text-align:start;letter-spacing:0px;word-spacing:0px;writing-mode:lr-tb;text-anchor:start;fill:#d4aa00;fill-opacity:1;stroke:none;stroke-width:1.10391462px;stroke-linecap:butt;stroke-linejoin:miter;stroke-opacity:1"
         xml:space="preserve"><tspan
           style="fill:#d4aa00;fill-opacity:1;stroke-width:1.10391462px"
           y="48.651726"
           x="53.649338"
           id="tspan1082"
           sodipodi:role="line">INDUSTRIES</tspan></text>
      <text
         xml:space="preserve"
         style="font-style:normal;font-variant:normal;font-weight:bold;font-stretch:normal;font-size:29.22616386px;line-height:54.79906082px;font-family:QuentinCaps;-inkscape-font-specification:'QuentinCaps Bold';font-variant-ligatures:normal;font-variant-caps:normal;font-variant-numeric:normal;font-feature-settings:normal;text-align:start;letter-spacing:0px;word-spacing:0px;writing-mode:lr-tb;text-anchor:start;fill:#d4aa00;fill-opacity:1;stroke:none;stroke-width:2.19196248px;stroke-linecap:butt;stroke-linejoin:miter;stroke-opacity:1"
         x="52.625454"
         y="35.364712"
         id="text1095"><tspan
           sodipodi:role="line"
           id="tspan1093"
           x="52.625454"
           y="35.364712"
           style="font-style:normal;font-variant:normal;font-weight:bold;font-stretch:normal;font-family:'Nexa Rust Sans';-inkscape-font-specification:'Nexa Rust Sans Bold';fill:#d4aa00;fill-opacity:1;stroke-width:2.19196248px">MAGG</tspan></text>
    </g>
    <g
       id="g1337"
       transform="translate(0,-35.012308)">
      <g
         transform="translate(0,2.6726953)"
         id="g1325">
        <path
           style="opacity:1;fill:#d4aa00;fill-opacity:1;stroke:none;stroke-width:4.40587616;stroke-linecap:round;stroke-linejoin:round;stroke-miterlimit:4;stroke-dasharray:none;stroke-dashoffset:0;stroke-opacity:0.89626555;paint-order:stroke fill markers"
           d="m 27.249472,98.072658 c -7.5317,8.910332 -9.536957,19.431862 -5.587067,29.315162 3.340594,8.2377 10.624797,15.52245 20.744588,20.74614 -0.926048,-1.44566 -1.705291,-2.93259 -2.331894,-4.44967 -2.39636,-6.01662 -2.338164,-12.33921 0.168021,-18.25352 -0.309982,-0.56648 -0.591189,-1.13978 -0.843143,-1.71891 -1.93807,-4.86624 -1.780219,-9.99818 0.455435,-14.80735 -3.26718,3.88282 -5.272052,8.18075 -5.884221,12.61425 -0.212458,-0.42772 -0.410319,-0.85861 -0.593432,-1.29232 -2.1533,-5.407 -1.977784,-11.10921 0.506446,-16.45274 -3.63003,4.31424 -5.857522,9.08967 -6.53761,14.01571 -0.23607,-0.47519 -0.45591,-0.95391 -0.659381,-1.43575 -2.392762,-6.00782 -2.197895,-12.34366 0.562263,-18.281002 z"
           id="path1117"
           inkscape:connector-curvature="0"
           sodipodi:nodetypes="cccccccccccccc" />
        <path
           inkscape:connector-curvature="0"
           id="path1163"
           d="m 185.97394,99.080338 c 2.76183,5.949012 2.94857,12.297092 0.53873,18.313742 -0.20789,0.46504 -0.43119,0.92696 -0.66961,1.38544 -0.67463,-4.91751 -2.89129,-9.68563 -6.50631,-13.99535 2.48568,5.35417 2.65371,11.06755 0.48475,16.48258 -0.18721,0.41849 -0.38811,0.83419 -0.60287,1.24676 -0.60712,-4.42553 -2.60193,-8.71662 -5.85516,-12.5952 2.23706,4.81864 2.38834,9.96053 0.43642,14.83397 -0.12405,0.27032 -0.2545,0.53932 -0.39142,0.80687 2.96235,6.21211 3.18061,12.93928 0.62708,19.32828 -0.478,1.17408 -1.04928,2.33028 -1.70854,3.46389 9.33383,-5.15973 16.04429,-12.11911 19.21046,-19.92308 3.97061,-9.89142 1.9733,-20.42639 -5.56351,-29.347895 z"
           style="opacity:1;fill:#d4aa00;fill-opacity:1;stroke:none;stroke-width:4.40587616;stroke-linecap:round;stroke-linejoin:round;stroke-miterlimit:4;stroke-dasharray:none;stroke-dashoffset:0;stroke-opacity:0.89626555;paint-order:stroke fill markers"
           sodipodi:nodetypes="cccccccccccccc" />
      </g>
      <g
         id="g1321">
        <path
           inkscape:connector-curvature="0"
           id="path1278"
           style="font-style:normal;font-variant:normal;font-weight:bold;font-stretch:normal;font-size:37.84676743px;line-height:70.96269226px;font-family:'Nexa Rust Sans';-inkscape-font-specification:'Nexa Rust Sans Bold';font-variant-ligatures:normal;font-variant-caps:normal;font-variant-numeric:normal;font-feature-settings:normal;text-align:start;letter-spacing:0px;word-spacing:0px;writing-mode:lr-tb;text-anchor:start;fill:#d4aa00;fill-opacity:1;stroke:none;stroke-width:2.83850789px;stroke-linecap:butt;stroke-linejoin:miter;stroke-opacity:1"
           d="m 75.498246,129.25971 v -0.60555 l 0.151387,-2.00588 v -0.60555 l -0.113541,-2.00588 v -0.60555 l 0.151388,-2.00587 v -0.60555 l -0.151388,-2.04373 v -0.60555 l -0.03785,-2.00588 v -0.60554 l 0.03785,-2.00588 v -0.60555 l -0.07569,-2.00588 0.03785,-0.60555 0.151387,-1.7031 0.03785,-0.45416 -0.07569,-0.30278 -0.227081,-0.18923 -0.264927,-0.0757 -0.454161,-0.0757 -0.643395,-0.0378 -1.135403,0.0757 h -0.605549 l -1.778798,-0.0379 -2.005878,-0.11354 -0.492008,-0.0379 -0.378468,0.18924 -0.302774,0.30277 -0.302774,0.41632 -0.984016,1.21109 -0.378468,0.49201 -1.324637,1.47603 -0.378467,0.492 -1.211097,1.47603 -0.378468,0.52985 -1.135403,1.51387 -0.340621,0.37847 -0.34062,0.18923 h -0.378468 l -0.340621,-0.18923 -0.378468,-0.41631 -1.173249,-1.47603 -0.378468,-0.52985 -1.248943,-1.47603 -0.378468,-0.492 -1.097556,-1.55172 -0.378468,-0.49201 -1.324637,-1.47602 -0.378468,-0.41632 -0.416314,-0.18923 H 52.18465 l -1.438177,-0.0378 -0.567702,0.0378 -0.643395,0.0757 -1.17325,0.11354 h -0.605548 l -0.832629,-0.18923 -0.643395,-0.0757 -0.492008,0.0379 -0.302774,0.0757 -0.22708,0.18924 -0.151388,0.26493 -0.07569,0.492 v 0.60555 l 0.151387,1.40033 v 0.60555 l -0.151387,2.00588 -0.03785,0.60555 0.151387,2.00588 -0.03785,0.60554 -0.11354,2.00588 v 0.60555 l 0.11354,2.04373 0.03785,0.60555 -0.03785,2.00587 v 0.60555 l 0.07569,2.00588 v 5.8284 l -0.07569,1.17325 v 0.87048 l 0.07569,0.37847 0.07569,0.26492 0.22708,0.22708 0.454161,0.0757 h 0.870476 l 1.816645,-0.15139 0.605548,-0.0379 1.476024,0.11354 0.605548,-0.0378 0.984016,-0.11354 0.264928,-0.0757 0.151387,-0.22708 0.07569,-0.49201 0.03785,-0.64339 0.03785,-0.60555 -0.03785,-1.1354 v -0.5677 l 0.03785,-2.3465 v -0.60555 l -0.07569,-2.38435 v -0.60555 l -0.151396,-2.38434 v -0.60555 l 0.11354,-2.38435 0.07569,-0.41631 0.227081,-0.0757 0.492008,0.492 1.968031,2.19512 0.378468,0.45416 1.400331,1.85449 1.892338,2.2708 0.416314,0.30278 0.454162,0.11354 0.416314,0.0757 h 0.302774 l 0.264928,-0.11354 0.34062,-0.30277 1.513871,-1.89234 2.308653,-2.76281 1.589564,-1.81665 0.378468,-0.52985 0.264927,-0.34062 h 0.227081 l 0.22708,0.15138 0.07569,0.45416 v 2.95205 l -0.151387,2.3465 v 0.60555 l 0.11354,2.38435 v 3.55759 l -0.07569,1.28679 0.03785,0.5677 0.03785,0.52986 0.03785,0.37847 0.151387,0.18923 0.264927,0.0757 1.400331,0.18924 0.681242,0.0378 H 71.4108 l 0.643395,0.0379 1.513871,0.11354 h 0.605548 l 0.567701,-0.0379 0.416315,-0.0757 0.22708,-0.18923 0.189234,-0.30278 0.03785,-0.41631 0.03785,-0.30278 -0.03785,-0.5677 -0.151387,-1.17325 -0.03785,-0.60555 z" />
        <path
           inkscape:connector-curvature="0"
           id="path1280"
           style="font-style:normal;font-variant:normal;font-weight:bold;font-stretch:normal;font-size:37.84676743px;line-height:70.96269226px;font-family:'Nexa Rust Sans';-inkscape-font-specification:'Nexa Rust Sans Bold';font-variant-ligatures:normal;font-variant-caps:normal;font-variant-numeric:normal;font-feature-settings:normal;text-align:start;letter-spacing:0px;word-spacing:0px;writing-mode:lr-tb;text-anchor:start;fill:#d4aa00;fill-opacity:1;stroke:none;stroke-width:2.83850789px;stroke-linecap:butt;stroke-linejoin:miter;stroke-opacity:1"
           d="m 109.09283,131.75759 -1.02186,-2.38434 -0.26493,-0.52986 -0.90832,-1.7788 -1.17325,-2.3465 -0.22708,-0.52985 -0.75693,-1.89234 -0.22708,-0.52985 -0.83263,-1.8545 -0.22708,-0.52985 -0.83263,-1.81665 -0.22708,-0.52985 -0.68125,-1.93019 -0.22708,-0.52985 -0.83263,-1.85449 -0.22708,-0.52986 -0.946167,-1.77879 -0.227086,-0.56771 -0.52985,-1.47602 -0.189234,-0.49201 -0.416314,-0.30277 -0.643396,-0.11354 -1.740951,-0.0378 h -2.952048 l -1.740951,0.0757 -0.567702,0.11355 -0.378467,0.22708 -0.189234,0.41631 -0.681242,1.55172 -0.22708,0.5677 -0.719089,1.74095 -0.264927,0.60555 -0.832629,1.7031 -0.264928,0.60555 -1.059709,2.27081 -1.362484,3.10343 -0.22708,0.52986 -1.021863,2.11942 -0.227081,0.5677 -0.870475,2.04372 -0.227081,0.5677 -0.984016,2.11942 -0.22708,0.52986 -0.94617,2.11942 -0.22708,0.5677 -0.529855,1.17325 -0.227081,0.60555 -0.07569,0.30277 -0.03785,0.49201 0.302774,0.41631 0.454161,0.22708 0.492008,-0.0378 2.3465,-0.15139 h 0.605548 l 2.195113,0.11354 0.605548,0.0378 0.567702,-0.22708 0.416314,-0.49201 0.227081,-0.60555 0.870475,-2.57358 0.227081,-0.45416 0.302774,-0.18923 0.492008,-0.0757 h 1.740951 l 0.567702,-0.0378 h 0.567701 l 2.270806,0.0378 2.838508,0.0757 h 0.605548 l 2.2708,0.15138 0.454167,0.0378 0.34062,0.0757 0.26493,0.37847 1.17325,3.17913 0.18924,0.41631 0.22708,0.30278 0.492,0.15138 2.3465,-0.15138 h 1.70311 l 0.5677,0.0378 0.87048,0.0757 h 0.52985 l 0.49201,-0.0757 0.41631,-0.18923 0.26493,-0.41631 -0.11354,-0.52986 z m -11.997424,-8.40198 -0.302774,0.30277 -0.492008,0.15139 -1.778798,-0.11354 h -2.384347 l -0.529854,-0.0757 -0.416315,-0.18924 -0.11354,-0.45416 0.11354,-0.5677 0.984016,-2.53573 0.227081,-0.5677 1.021862,-2.57358 0.378468,-0.37847 0.416314,-0.11354 0.492008,0.11354 0.378468,0.26493 0.189234,0.492 0.756935,2.23296 0.189234,0.5677 0.832629,2.57358 0.151387,0.49201 z" />
        <path
           inkscape:connector-curvature="0"
           id="path1282"
           style="font-style:normal;font-variant:normal;font-weight:bold;font-stretch:normal;font-size:37.84676743px;line-height:70.96269226px;font-family:'Nexa Rust Sans';-inkscape-font-specification:'Nexa Rust Sans Bold';font-variant-ligatures:normal;font-variant-caps:normal;font-variant-numeric:normal;font-feature-settings:normal;text-align:start;letter-spacing:0px;word-spacing:0px;writing-mode:lr-tb;text-anchor:start;fill:#d4aa00;fill-opacity:1;stroke:none;stroke-width:2.83850789px;stroke-linecap:butt;stroke-linejoin:miter;stroke-opacity:1"
           d="m 138.22348,118.88969 -0.11354,-0.52985 -0.0757,-0.22708 -0.26493,-0.15139 -0.5677,-0.11354 -0.30277,-0.0378 -0.60555,0.0378 -1.55172,0.18923 h -0.60555 l -3.02774,-0.18923 -2.46004,0.11354 h -1.74095 l -0.64339,0.0379 -0.94617,0.11354 -0.45416,0.0757 -0.18924,0.18923 -0.11354,0.41632 v 0.79478 l 0.0757,0.5677 0.0757,1.1354 -0.0378,0.94617 0.0378,0.60555 0.0379,0.30278 0.0757,0.45416 0.15139,0.18923 0.22708,0.0757 1.28679,0.22708 0.60555,0.0378 h 0.87047 l 0.60555,-0.0378 0.87047,-0.11354 0.60555,-0.0378 h 0.90833 l 0.41631,0.0757 0.15139,0.22708 v 0.6434 l 0.0757,1.1354 v 0.5677 l -0.0378,0.34062 v 0.41632 l -0.11354,0.22708 -0.37846,0.26493 -0.56771,0.26492 -0.60554,0.22708 -2.04373,0.49201 -0.5677,0.11354 -0.60555,0.0757 h -0.60555 l -0.64339,-0.0379 -0.6434,-0.0757 -1.1354,-0.26493 -0.5677,-0.22708 -0.75694,-0.41632 -0.49201,-0.37847 -0.68124,-0.64339 -0.37846,-0.45416 -0.45417,-0.68124 -0.26492,-0.52986 -0.37847,-0.90832 -0.18923,-0.60555 -0.18924,-0.87047 -0.11354,-0.60555 -0.0757,-0.90832 v -0.6434 l 0.0378,-0.64339 0.11354,-0.60555 0.22709,-1.13541 0.15138,-0.5677 0.18924,-0.60555 0.22708,-0.5677 0.30277,-0.52985 0.34062,-0.49201 0.37847,-0.49201 0.41631,-0.41631 0.49201,-0.37847 0.49201,-0.34062 1.1354,-0.52986 0.60555,-0.15138 0.98402,-0.0757 0.60555,-0.0378 h 0.26492 l 1.7788,0.11354 0.6434,0.11354 0.64339,0.15138 0.60555,0.22708 0.60555,0.26493 0.52985,0.30278 0.49201,0.30277 0.49201,0.34062 0.41631,0.26493 0.30278,-0.0379 0.22708,-0.15139 0.30277,-0.22708 0.41632,-0.30277 0.45416,-0.37847 0.68124,-0.60555 1.05971,-1.05971 0.37847,-0.41631 0.34062,-0.49201 0.22708,-0.34062 0.11354,-0.26493 v -0.26492 l -0.22708,-0.26493 -0.22708,-0.18923 -0.41632,-0.30278 -0.18923,-0.18923 -0.41632,-0.30278 -0.41631,-0.26492 -0.18923,-0.11354 -0.49201,-0.34063 -0.5677,-0.34062 -1.36249,-0.68124 -0.5677,-0.18923 -0.83263,-0.26493 -0.5677,-0.15139 -0.83263,-0.15138 -0.52985,-0.11354 -0.87048,-0.11354 -0.5677,-0.0378 -0.83263,-0.0757 -0.60555,0.0378 -0.87047,0.0757 -0.5677,0.0757 -0.56771,0.11354 -1.09755,0.15139 -1.40033,0.22708 -0.60555,0.15138 -0.6434,0.18924 -0.64339,0.26493 -0.5677,0.34062 -1.24895,0.71909 -0.45416,0.30277 -0.45416,0.34062 -0.49201,0.37847 -0.98401,0.83263 -0.45416,0.41631 -0.41632,0.45416 -0.41631,0.49201 -0.34062,0.45416 -0.49201,0.68124 -0.26493,0.52986 -0.26493,0.64339 -0.26492,0.60555 -0.18924,0.5677 -0.18923,0.60555 -0.18923,0.6434 -0.18924,0.60554 -0.15139,0.6434 -0.11354,0.64339 -0.0757,0.30278 -0.11354,1.7031 v 0.56771 l 0.0379,0.5677 0.0757,0.60554 0.15139,0.83263 0.0757,0.60555 0.11354,0.6434 0.11354,0.60555 0.18924,0.64339 0.18923,0.60555 0.26493,0.5677 0.26492,0.60555 0.94617,1.7031 0.34062,0.52986 0.41632,0.5677 0.37847,0.45416 0.60554,0.60555 0.41632,0.37847 0.45416,0.34062 0.45416,0.37847 0.49201,0.34062 0.45416,0.34062 0.75694,0.41631 0.492,0.26493 0.75694,0.26493 0.5677,0.18923 0.5677,0.15139 1.32464,0.37846 0.5677,0.15139 0.60555,0.11354 0.60555,0.0757 0.87047,0.0757 1.17325,0.0757 0.5677,-0.0378 1.51387,-0.18924 0.56771,-0.11354 0.52985,-0.0757 0.87048,-0.11354 0.5677,-0.11354 0.60555,-0.11354 0.5677,-0.15139 0.87047,-0.26493 0.52986,-0.18923 0.5677,-0.22708 0.75694,-0.37847 0.492,-0.30277 0.26493,-0.15139 0.49201,-0.34062 0.22708,-0.22708 0.45416,-0.41632 0.6434,-0.64339 0.34062,-0.49201 0.30277,-0.49201 0.22708,-0.37847 0.0378,-0.41631 v -2.23296 l 0.0757,-1.58956 v -3.5576 l 0.15139,-2.46004 -0.0378,-0.64339 z" />
        <path
           inkscape:connector-curvature="0"
           id="path1284"
           style="font-style:normal;font-variant:normal;font-weight:bold;font-stretch:normal;font-size:37.84676743px;line-height:70.96269226px;font-family:'Nexa Rust Sans';-inkscape-font-specification:'Nexa Rust Sans Bold';font-variant-ligatures:normal;font-variant-caps:normal;font-variant-numeric:normal;font-feature-settings:normal;text-align:start;letter-spacing:0px;word-spacing:0px;writing-mode:lr-tb;text-anchor:start;fill:#d4aa00;fill-opacity:1;stroke:none;stroke-width:2.83850789px;stroke-linecap:butt;stroke-linejoin:miter;stroke-opacity:1"
           d="m 168.14696,118.88969 -0.11354,-0.52985 -0.0757,-0.22708 -0.26492,-0.15139 -0.56771,-0.11354 -0.30277,-0.0378 -0.60555,0.0378 -1.55172,0.18923 h -0.60554 l -3.02775,-0.18923 -2.46004,0.11354 h -1.74095 l -0.64339,0.0379 -0.94617,0.11354 -0.45416,0.0757 -0.18924,0.18923 -0.11354,0.41632 v 0.79478 l 0.0757,0.5677 0.0757,1.1354 -0.0378,0.94617 0.0378,0.60555 0.0378,0.30278 0.0757,0.45416 0.15139,0.18923 0.22708,0.0757 1.28679,0.22708 0.60555,0.0378 h 0.87047 l 0.60555,-0.0378 0.87048,-0.11354 0.60555,-0.0378 h 0.90832 l 0.41631,0.0757 0.15139,0.22708 v 0.6434 l 0.0757,1.1354 v 0.5677 l -0.0378,0.34062 v 0.41632 l -0.11354,0.22708 -0.37847,0.26493 -0.5677,0.26492 -0.60555,0.22708 -2.04373,0.49201 -0.5677,0.11354 -0.60555,0.0757 h -0.60555 l -0.64339,-0.0379 -0.6434,-0.0757 -1.1354,-0.26493 -0.5677,-0.22708 -0.75694,-0.41632 -0.492,-0.37847 -0.68125,-0.64339 -0.37846,-0.45416 -0.45416,-0.68124 -0.26493,-0.52986 -0.37847,-0.90832 -0.18923,-0.60555 -0.18924,-0.87047 -0.11354,-0.60555 -0.0757,-0.90832 v -0.6434 l 0.0379,-0.64339 0.11354,-0.60555 0.22708,-1.13541 0.15138,-0.5677 0.18924,-0.60555 0.22708,-0.5677 0.30277,-0.52985 0.34062,-0.49201 0.37847,-0.49201 0.41632,-0.41631 0.492,-0.37847 0.49201,-0.34062 1.1354,-0.52986 0.60555,-0.15138 0.98402,-0.0757 0.60555,-0.0378 h 0.26492 l 1.7788,0.11354 0.6434,0.11354 0.64339,0.15138 0.60555,0.22708 0.60555,0.26493 0.52985,0.30278 0.49201,0.30277 0.49201,0.34062 0.41631,0.26493 0.30278,-0.0379 0.22708,-0.15139 0.30277,-0.22708 0.41632,-0.30277 0.45416,-0.37847 0.68124,-0.60555 1.05971,-1.05971 0.37847,-0.41631 0.34062,-0.49201 0.22708,-0.34062 0.11354,-0.26493 v -0.26492 l -0.22708,-0.26493 -0.22708,-0.18923 -0.41632,-0.30278 -0.18923,-0.18923 -0.41631,-0.30278 -0.41632,-0.26492 -0.18923,-0.11354 -0.49201,-0.34063 -0.5677,-0.34062 -1.36249,-0.68124 -0.5677,-0.18923 -0.83263,-0.26493 -0.5677,-0.15139 -0.83263,-0.15138 -0.52985,-0.11354 -0.87048,-0.11354 -0.5677,-0.0378 -0.83263,-0.0757 -0.60555,0.0378 -0.87047,0.0757 -0.5677,0.0757 -0.5677,0.11354 -1.09756,0.15139 -1.40033,0.22708 -0.60555,0.15138 -0.64339,0.18924 -0.6434,0.26493 -0.5677,0.34062 -1.24894,0.71909 -0.45417,0.30277 -0.45416,0.34062 -0.492,0.37847 -0.98402,0.83263 -0.45416,0.41631 -0.41632,0.45416 -0.41631,0.49201 -0.34062,0.45416 -0.49201,0.68124 -0.26493,0.52986 -0.26492,0.64339 -0.26493,0.60555 -0.18924,0.5677 -0.18923,0.60555 -0.18923,0.6434 -0.18924,0.60554 -0.15138,0.6434 -0.11354,0.64339 -0.0757,0.30278 -0.11354,1.7031 v 0.56771 l 0.0379,0.5677 0.0757,0.60554 0.15139,0.83263 0.0757,0.60555 0.11354,0.6434 0.11354,0.60555 0.18924,0.64339 0.18923,0.60555 0.26493,0.5677 0.26493,0.60555 0.94617,1.7031 0.34062,0.52986 0.41631,0.5677 0.37847,0.45416 0.60555,0.60555 0.41631,0.37847 0.45416,0.34062 0.45416,0.37847 0.49201,0.34062 0.45416,0.34062 0.75694,0.41631 0.49201,0.26493 0.75693,0.26493 0.5677,0.18923 0.5677,0.15139 1.32464,0.37846 0.5677,0.15139 0.60555,0.11354 0.60555,0.0757 0.87047,0.0757 1.17325,0.0757 0.56771,-0.0378 1.51387,-0.18924 0.5677,-0.11354 0.52985,-0.0757 0.87048,-0.11354 0.5677,-0.11354 0.60555,-0.11354 0.5677,-0.15139 0.87048,-0.26493 0.52985,-0.18923 0.5677,-0.22708 0.75694,-0.37847 0.49201,-0.30277 0.26492,-0.15139 0.49201,-0.34062 0.22708,-0.22708 0.45416,-0.41632 0.6434,-0.64339 0.34062,-0.49201 0.30277,-0.49201 0.22708,-0.37847 0.0378,-0.41631 v -2.23296 l 0.0757,-1.58956 v -3.5576 l 0.15139,-2.46004 -0.0378,-0.64339 z" />
      </g>
      <text
         xml:space="preserve"
         style="font-style:normal;font-variant:normal;font-weight:bold;font-stretch:normal;font-size:14.38552094px;line-height:26.9728508px;font-family:'Nexa Rust Sans';-inkscape-font-specification:'Nexa Rust Sans Bold';font-variant-ligatures:normal;font-variant-caps:normal;font-variant-numeric:normal;font-feature-settings:normal;text-align:start;letter-spacing:0px;word-spacing:0px;writing-mode:lr-tb;text-anchor:start;fill:#d4aa00;fill-opacity:1;stroke:none;stroke-width:1.07891405px;stroke-linecap:butt;stroke-linejoin:miter;stroke-opacity:1"
         x="45.223652"
         y="147.69554"
         id="text1173"
         transform="scale(0.99235845,1.0077004)"><tspan
           sodipodi:role="line"
           id="tspan1171"
           x="45.223652"
           y="147.69554"
           style="fill:#d4aa00;fill-opacity:1;stroke-width:1.07891405px">TECHNOLoGIES</tspan></text>
    </g>
  </g>
</svg>
